<svg xmlns="http://www.w3.org/2000/svg" xml:space="preserve" width="245.093" height="62.987" viewBox="0 0 245.093 62.987">
  <path d="M605.484 143.859c-5.636 3.043-9.972 9.559-9.972 18.243 0 11.707 9.105 21.199 21.289 21.199a22.77 22.77 0 0 0 11.254-3.008c22.16-14.766 45.164-22.148 65.965-22.148 22.562 0 35.578 9.558 35.578 24.765v.86c0 17.793-24.285 23.859-51.211 32.097-33.828 9.555-71.582 23.426-71.582 67.262v.879c0 43.402 36.015 69.863 81.582 69.863 24.308 0 49.898-6.953 72.031-18.652 7.398-3.918 12.578-10.864 12.578-19.953 0-12.164-9.531-21.297-21.68-21.297-4.363 0-6.964.871-10.398 2.617-18.691 9.559-37.777 15.644-53.828 15.644-20.41 0-32.129-9.57-32.129-22.597v-.844c0-16.93 24.734-23.855 51.648-32.551 33.414-10.422 71.168-25.601 71.168-66.824v-.879c0-48.164-37.339-72.004-85.062-72.004-29.055 0-60.735 9.082-87.231 27.328m375.711 91.114v.879c0 44.242-29.949 73.32-65.515 73.32-35.582 0-66.825-29.508-66.825-73.32v-.879c0-43.828 31.243-73.364 66.825-73.364 36.015 0 65.515 28.227 65.515 73.364m-183.558 92.445c0 14.727 11.269 26.461 26.054 26.461 14.743 0 26.461-11.734 26.461-26.461v-15.645c16.926 23.856 40.786 42.957 78.114 42.957 53.8 0 106.314-42.507 106.314-118.878v-.879c0-75.95-52.076-118.899-106.314-118.899-38.184 0-62.055 19.114-78.114 40.332V75.305c0-14.809-11.718-26.094-26.461-26.094-14.312 0-26.054 11.285-26.054 26.094zm256.833-.031c0 14.726 11.25 26.461 26.01 26.461 14.79 0 26.49-11.735 26.49-26.461v-12.625c2.62 19.664 34.7 39.086 57.71 39.086 16.48 0 26.04-10.84 26.04-26.02 0-13.875-9.12-23.004-20.84-25.168-37.32-6.512-62.91-39.168-62.91-84.347v-75.704c0-14.336-11.7-26.046-26.49-26.046-14.31 0-26.01 11.289-26.01 26.046zm156.11-.106c0 14.75 11.32 26.485 26.05 26.485 14.75 0 26.47-11.735 26.47-26.485V142.566c0-14.734-11.72-26.003-26.47-26.003-14.33 0-26.05 11.269-26.05 26.003zm78.99-.101c0 14.75 11.29 26.457 26.02 26.457 14.77 0 26.48-11.707 26.48-26.457v-10.774c14.78 21.27 36.01 37.364 71.59 37.364 51.64 0 81.6-34.731 81.6-87.665V142.598c0-14.746-11.3-26.043-26.05-26.043s-26.46 11.297-26.46 26.043v107.445c0 35.566-17.79 55.977-49.04 55.977-30.37 0-51.64-21.262-51.64-56.872v-106.55c0-14.746-11.71-26.043-26.48-26.043-14.31 0-26.02 11.297-26.02 26.043zm344.48-165.09c-36.05 0-65.53 28.215-65.53 73.351v.852c0 44.254 29.92 73.332 65.53 73.332 35.59 0 66.83-29.516 66.83-73.332v-.852c0-43.839-31.24-73.351-66.83-73.351M1726 354.332c-14.73 0-26.45-11.742-26.45-26.473v-15.617c-16.94 23.856-40.78 42.946-78.08 42.946-53.84 0-106.33-42.508-106.33-118.895v-.852c0-75.949 52.06-118.886 106.33-118.886 37.96 0 61.77 18.886 77.84 40-2.63-41.262-27.89-63.047-72.2-63.047-26.45 0-49.46 6.531-70.32 18.269-2.6 1.27-5.59 2.129-9.51 2.129-12.15 0-22.16-9.992-22.16-21.672 0-9.988 5.65-17.363 14.79-20.836 27.73-13.457 56.35-20.402 88.48-20.402 41.25 0 73.37 9.973 94.2 30.813 19.05 19.109 29.47 47.714 29.47 86.355v159.695c0 14.731-11.28 26.473-26.06 26.473m-462.69 62.664c0-14.601-11.86-26.473-26.48-26.473-14.63 0-26.46 11.872-26.46 26.473 0 14.641 11.83 26.461 26.46 26.461 14.62 0 26.48-11.82 26.48-26.461m-833.99-284.75c-58.211-77.559-182.558-51.379-262.281-55.144 0 0-14.113-.786-28.328-3.125 0 0 5.375 2.293 12.23 4.656 55.993 19.363 82.454 23.254 116.477 40.73 63.926 32.746 127.547 104.075 140.492 178.172-24.332-71.265-98.336-132.601-165.719-157.508-46.121-17.019-129.527-33.582-129.539-33.589.039-.059-3.324 1.746-3.371 1.785-56.722 27.597-58.36 150.449 44.66 190.05 45.168 17.375 88.372 7.832 137.2 19.454 52.078 12.382 112.394 51.418 136.91 102.453 27.484-81.52 60.5-209.059 1.269-287.934m1.012 313.195c-6.93-16.464-15.387-31.3-25.137-44.57-42.914 44.043-102.812 71.484-169.019 71.484C105.941 472.355 0 366.402 0 236.191 0 167.93 29.137 106.367 75.59 63.215l5.172-4.582c-8.637 7.043-9.965 19.726-2.965 28.37 7.043 8.65 19.738 9.99 28.379 2.985 8.664-7.02 9.984-19.734 2.969-28.394-6.989-8.664-19.708-9.973-28.36-2.98l3.52-3.118C125.395 20.898 178.363 0 236.176 0 360.66 0 462.879 96.875 471.629 219.148c6.48 59.868-11.203 135.887-41.297 226.293M1813.55 337.793h-8.25v-10.922h8.25c2.67 0 5.59 2.156 5.59 5.332 0 3.434-2.92 5.59-5.59 5.59m5.09-27.039-8.01 12.187h-5.33v-12.187h-4.31v30.851h12.56c5.21 0 10.04-3.691 10.04-9.402 0-6.851-6.11-9.14-7.88-9.14l8.26-12.309zm-7.37 38.34a22.76 22.76 0 0 1-22.86-22.86c0-12.562 10.16-22.851 22.86-22.851 12.56 0 22.85 10.289 22.85 22.851 0 12.704-10.29 22.86-22.85 22.86m0-49.778c-14.86 0-26.92 12.067-26.92 26.918 0 14.993 12.06 26.926 26.92 26.926 14.98 0 26.92-11.933 26.92-26.926 0-14.851-11.94-26.918-26.92-26.918" style="fill:#5fb832;fill-opacity:1;fill-rule:nonzero;stroke:none" transform="matrix(.13333 0 0 -.13333 0 62.987)"/>
</svg>
